<?xml version="1.0" encoding="UTF-8"?>
<svg width="36px" height="29px" viewBox="0 0 36 29" version="1.1" xmlns="http://www.w3.org/2000/svg" xmlns:xlink="http://www.w3.org/1999/xlink">
    <!-- Generator: Sketch 51.2 (57519) - http://www.bohemiancoding.com/sketch -->
    <title>Twitter</title>
    <desc>Created with Sketch.</desc>
    <defs></defs>
    <g id="Mockup" stroke="none" stroke-width="1" fill="none" fill-rule="evenodd">
        <g id="HOME-Mobile" transform="translate(-143.000000, -4461.000000)" fill="#000000">
            <g id="Footer" transform="translate(47.000000, 3930.000000)">
                <g id="Footer-Social-Icons" transform="translate(25.000000, 526.000000)">
                    <path d="M101.313513,7.31074587 C99.9697488,5.88824811 98.0492617,5 95.9230769,5 C91.847569,5 88.5400635,8.27797001 88.5400635,12.3206139 C88.5400635,12.8948161 88.6035031,13.452294 88.7303821,13.9884019 C82.5921288,13.6827182 77.1507489,10.7708253 73.5058607,6.33701781 C72.8695432,7.42224145 72.5062078,8.68028322 72.5062078,10.0210176 C72.5062078,12.5594002 73.8096014,14.8013905 75.7925667,16.1142509 C74.5833712,16.078944 73.4424212,15.7453864 72.4446907,15.2009163 L72.4446907,15.2910419 C72.4446907,18.8393887 74.990922,21.7986672 78.3724401,22.4694989 C77.7534243,22.6404588 77.0998051,22.7268679 76.4260006,22.7268679 C75.9502043,22.7268679 75.4859424,22.6831988 75.0360986,22.5967897 C75.9761568,25.5040369 78.7021333,27.6215238 81.9346648,27.6782007 C79.4076576,29.6433103 76.221264,30.8140138 72.7618882,30.8140138 C72.1659413,30.8140138 71.5767228,30.7805652 71,30.7136678 C74.268096,32.7874856 78.1523242,34 82.3220303,34 C95.9086589,34 103.335888,22.8457965 103.335888,13.1716968 C103.335888,12.8530053 103.33012,12.5343137 103.317625,12.2221261 C104.760393,11.1898629 106.013804,9.90115981 107,8.43313469 C105.677382,9.01569909 104.252877,9.40965013 102.759165,9.58525567 C104.284597,8.68028322 105.455344,7.24570678 106.007076,5.53703704 C104.578725,6.37418301 103.000427,6.98369217 101.313513,7.31074587 Z" id="Twitter"></path>
                </g>
            </g>
        </g>
    </g>
</svg>