<?xml version="1.0" encoding="UTF-8"?>
<svg width="36px" height="35px" viewBox="0 0 36 35" version="1.1" xmlns="http://www.w3.org/2000/svg" xmlns:xlink="http://www.w3.org/1999/xlink">
    <!-- Generator: Sketch 51.2 (57519) - http://www.bohemiancoding.com/sketch -->
    <title>Instagram</title>
    <desc>Created with Sketch.</desc>
    <defs></defs>
    <g id="Mockup" stroke="none" stroke-width="1" fill="none" fill-rule="evenodd">
        <g id="HOME-Mobile" transform="translate(-212.000000, -4456.000000)" fill="#000000">
            <g id="Footer" transform="translate(47.000000, 3930.000000)">
                <g id="Footer-Social-Icons" transform="translate(25.000000, 526.000000)">
                    <path d="M171.720808,0 L144.279192,0 C141.915719,0 140,1.85868587 140,4.15077871 L140,30.8492213 C140,33.1422688 141.915719,35 144.279192,35 L171.720808,35 C174.084281,35 176,33.1422688 176,30.8492213 L176,4.15077871 C176,1.85868587 174.084281,0 171.720808,0 L171.720808,0 Z M165.87546,5.46913782 C165.87546,4.86485012 166.379183,4.37511933 166.999755,4.37511933 L170.374601,4.37511933 C170.996154,4.37511933 171.499877,4.86485012 171.499877,5.46913782 L171.499877,8.75023866 C171.499877,9.35357172 170.996154,9.84425715 170.374601,9.84425715 L166.999755,9.84425715 C166.379183,9.84425715 165.87546,9.35357172 165.87546,8.75023866 L165.87546,5.46913782 L165.87546,5.46913782 Z M158.041731,10.825628 C161.865314,10.825628 164.965224,13.8327469 164.965224,17.5405722 C164.965224,21.2493522 161.865314,24.2564711 158.041731,24.2564711 C154.219131,24.2564711 151.119221,21.2493522 151.119221,17.5405722 C151.119221,13.8327469 154.219131,10.825628 158.041731,10.825628 L158.041731,10.825628 Z M172.625153,30.6248807 C172.625153,31.2291684 172.12143,31.7188992 171.499877,31.7188992 L144.500123,31.7188992 C143.87857,31.7188992 143.374847,31.2291684 143.374847,30.6248807 L143.374847,14.2193765 L147.874969,14.2193765 C147.288765,15.039413 147.090418,16.5697024 147.090418,17.5405722 C147.090418,23.3972943 152.003928,28.1628617 158.041731,28.1628617 C164.080517,28.1628617 168.994027,23.3972943 168.994027,17.5405722 C168.994027,16.5697024 168.851649,15.0623244 168.125031,14.2193765 L172.625153,14.2193765 L172.625153,30.6248807 L172.625153,30.6248807 Z" id="Instagram"></path>
                </g>
            </g>
        </g>
    </g>
</svg>