<?xml version="1.0" encoding="UTF-8"?>
<svg width="36px" height="35px" viewBox="0 0 36 35" version="1.1" xmlns="http://www.w3.org/2000/svg" xmlns:xlink="http://www.w3.org/1999/xlink">
    <!-- Generator: Sketch 51.2 (57519) - http://www.bohemiancoding.com/sketch -->
    <title>Facebook</title>
    <desc>Created with Sketch.</desc>
    <defs></defs>
    <g id="Mockup" stroke="none" stroke-width="1" fill="none" fill-rule="evenodd">
        <g id="HOME-Mobile" transform="translate(-72.000000, -4456.000000)" fill="#000000">
            <g id="Footer" transform="translate(47.000000, 3930.000000)">
                <g id="Footer-Social-Icons" transform="translate(25.000000, 526.000000)">
                    <path d="M36,33.0684264 C36,34.1352728 35.1105663,35 34.0132385,35 L24.8394214,35 L24.8394214,21.4456158 L29.5189998,21.4456158 L30.220152,16.1638201 L24.8394214,16.1638201 L24.8394214,12.7916701 C24.8394214,11.2624282 25.2767835,10.2194165 27.5322383,10.2194165 L30.4094141,10.2184631 L30.4094141,5.49440222 C29.9112528,5.42957152 28.2039716,5.28560922 26.2172101,5.28560922 C22.0691346,5.28560922 19.2292228,7.74726921 19.2292228,12.2682575 L19.2292228,16.1638201 L14.5378769,16.1638201 L14.5378769,21.4456158 L19.2292228,21.4456158 L19.2292228,35 L1.98676146,35 C0.889433685,35 0,34.1352728 0,33.0684264 L0,1.93157364 C0,0.864727193 0.889433685,0 1.98676146,0 L34.0132385,0 C35.1105663,0 36,0.864727193 36,1.93157364 L36,33.0684264" id="Facebook"></path>
                </g>
            </g>
        </g>
    </g>
</svg>